Coordinates
version=1
nRows=19
nColumns=36
inDegrees=yes

Units are S.I. units (second, meters, Newtons, ...)
If the header above contains a line with 'inDegrees', this indicates whether rotational values are in degrees (yes) or radians (no).

endheader
time	pelvis_tilt	pelvis_list	pelvis_rotation	pelvis_tx	pelvis_ty	pelvis_tz	hip_flexion_r	hip_adduction_r	hip_rotation_r	knee_angle_r	knee_angle_r_beta	ankle_angle_r	subtalar_angle_r	mtp_angle_r	hip_flexion_l	hip_adduction_l	hip_rotation_l	knee_angle_l	knee_angle_l_beta	ankle_angle_l	subtalar_angle_l	mtp_angle_l	lumbar_extension	lumbar_bending	lumbar_rotation	arm_flex_r	arm_add_r	arm_rot_r	elbow_flex_r	pro_sup_r	arm_flex_l	arm_add_l	arm_rot_l	elbow_flex_l	pro_sup_l
      1.46666670	    -10.09717498	      0.39181208	     -1.86490293	     -1.03188716	      1.40094100	     -0.04356281	      7.42744470	      1.28298660	     -2.43744177	      5.32269564	      0.09289856	      9.56426601	      0.42015488	     -7.49999987	      7.13890434	      0.12136282	      0.60839574	      5.62671759	      0.09820475	      8.17169101	     -1.50195921	     -7.49999987	     -8.33588859	      1.33891451	     -2.37829151	    -27.27022934	     -8.24277158	    -24.20064323	     42.18316032	     78.84888656	    -20.45595399	     -9.91414614	    -40.30444335	     19.21831518	     76.45592838
      1.47083330	    -10.31827020	      0.36010575	     -1.83391580	     -1.02983568	      1.40069495	     -0.04573574	      7.69161863	      1.29738309	     -2.38291297	      5.48744492	      0.09577398	      9.66581621	      0.42321179	     -7.49999987	      7.40640462	      0.09070567	      0.55909196	      5.66670603	      0.09890268	      8.15886798	     -1.49610553	     -7.49999987	     -8.31454150	      1.46123643	     -2.55789203	    -27.79222239	     -8.34798498	    -24.01622764	     42.50829871	     78.52691216	    -21.03630657	     -9.93255351	    -40.27342635	     19.25489561	     76.10080547
      1.47500000	    -10.50173404	      0.37901098	     -1.81126086	     -1.02947696	      1.39357540	     -0.04512220	      7.96074229	      1.25167198	     -2.45010228	      5.72412738	      0.09990487	     10.00339032	      0.64903610	     -7.49999987	      7.64247784	      0.09683595	      0.47864631	      5.75764162	      0.10048980	      8.30517579	     -1.42882985	     -7.49999987	     -8.32898629	      1.55070601	     -3.03107751	    -28.33672935	     -9.20276069	    -21.60297864	     43.12048345	     78.18953699	    -21.76438952	    -10.24601097	    -39.43703462	     18.20711192	     75.08570518
      1.47916670	    -10.73214431	      0.41556779	     -1.82993135	     -1.02887194	      1.39695604	     -0.04416270	      8.25855510	      1.20535602	     -2.45365239	      5.96502002	      0.10410924	     10.11872967	      0.68528699	     -7.49999987	      7.89290239	      0.10291841	      0.35527385	      5.82647755	      0.10169122	      8.34898358	     -1.20939266	     -7.49999987	     -8.29743108	      1.55753531	     -3.17575138	    -28.55895857	     -9.57903459	    -20.64720880	     43.41173125	     77.63482614	    -22.19661984	    -10.42417368	    -39.17274579	     17.63783519	     74.28034441
      1.48333330	    -11.08176197	      0.42963803	     -1.81099220	     -1.02921210	      1.39626586	     -0.04373947	      8.72152177	      1.20211544	     -2.41987153	      6.19538362	      0.10812984	     10.28472063	      0.61870515	     -7.49999987	      8.35878842	      0.09656887	      0.26633051	      6.02520959	      0.10515975	      8.46829507	     -1.09439840	     -7.49999987	     -8.13945010	      1.61821968	     -3.39048254	    -28.71226299	    -10.11822723	    -18.84946887	     43.51649894	     77.11456757	    -22.68086415	    -10.66410201	    -38.51541719	     17.10679998	     73.21752750
      1.48750000	    -11.39480295	      0.44441185	     -1.77720659	     -1.02725590	      1.39531726	     -0.04371117	      9.10728232	      1.19761516	     -2.43666382	      6.36763778	      0.11113624	     10.36114687	      0.66149700	     -7.49999987	      8.74700663	      0.08745861	      0.22954702	      6.18882279	      0.10801533	      8.53030888	     -1.05782876	     -7.49999987	     -8.05847492	      1.64995009	     -3.57278491	    -28.78283825	    -10.51837691	    -17.43250068	     43.51098974	     75.43679905	    -23.23002151	    -10.92021722	    -37.88009587	     16.74857836	     71.21283218
      1.49166670	    -11.50239230	      0.43600170	     -1.71249856	     -1.02549330	      1.39513366	     -0.04346263	      9.16972337	      1.21949861	     -2.34971952	      6.39312377	      0.11158106	     10.35414258	      0.50354732	     -7.49999987	      8.88929444	      0.06821406	      0.22115063	      6.33249894	      0.11052296	      8.58769864	     -1.04884891	     -7.49999987	     -8.14209963	      1.69774670	     -3.64074110	    -29.09220923	    -10.61395452	    -17.02342541	     43.85772940	     74.59925308	    -23.76581835	    -11.10196598	    -37.66066593	     16.52786092	     70.40747646
      1.49583330	    -11.64681235	      0.43256996	     -1.63395151	     -1.02881984	      1.39533580	     -0.04502642	      9.28887977	      1.21540542	     -2.38932105	      6.37418925	      0.11125059	     10.38215621	      0.50945992	     -7.49999987	      9.01142541	      0.07039566	      0.19114805	      6.30963392	      0.11012389	      8.61917237	     -1.04795233	     -7.49999987	     -8.33332556	      1.78070538	     -3.55983691	    -29.12702006	    -10.67906634	    -16.97049261	     43.88093947	     74.61781211	    -24.03545313	    -11.27008615	    -37.66917618	     16.43432452	     70.40193197
      1.50000000	    -11.74049032	      0.41687880	     -1.52223257	     -1.02577268	      1.39766442	     -0.04311866	      9.33412278	      1.21261217	     -2.37805461	      6.34358916	      0.11071652	     10.40660048	      0.53114737	     -7.49999987	      9.08875153	      0.04960952	      0.16540453	      6.33335029	      0.11053782	      8.62710208	     -1.04794140	     -7.49999987	     -8.47665349	      1.84195181	     -3.50158053	    -29.21925016	    -10.61234334	    -16.89936296	     43.88397877	     74.63058513	    -24.32589906	    -11.34801972	    -37.68024196	     16.31941107	     70.39664309
      1.50416670	    -12.20402767	      0.35841859	     -1.33613578	     -1.02640499	      1.39497264	     -0.04357979	      9.73781705	      1.27376604	     -2.56175600	      6.19981816	      0.10820724	     10.50065599	      0.82661293	     -7.49999987	      9.71578199	     -0.03124745	      0.04102166	      6.61476837	      0.11544949	      8.92653339	     -0.65132210	     -7.49999987	     -7.94638336	      1.87376362	     -4.11042632	    -29.41348458	    -11.43572891	    -14.18696873	     44.40942487	     74.89235848	    -25.00282681	    -11.59843086	    -36.69826277	     15.27456560	     70.14902132
      1.50833330	    -12.38508973	      0.33557516	     -1.21365048	     -1.02587062	      1.39190207	     -0.04423608	      9.84291800	      1.29203588	     -2.54645745	      6.04812288	      0.10555966	     10.33370654	      0.65172394	     -7.49999987	      9.98039744	     -0.04118126	      0.10347517	      6.69335386	      0.11682106	      8.98669665	     -0.55421135	     -7.49999987	     -8.04983308	      1.97107797	     -4.36705996	    -29.58248583	    -11.59708533	    -13.84670863	     44.90289101	     73.43643202	    -25.78924228	    -11.64437634	    -36.37931168	     15.61143626	     68.98550747
      1.51250000	    -12.65462302	      0.33715450	     -1.18134220	     -1.02500375	      1.39291556	     -0.04351069	     10.14501445	      1.30412385	     -2.55636042	      6.07836728	      0.10608752	     10.42101397	      0.94920679	     -7.49999987	     10.37330563	     -0.06857189	     -0.07171011	      6.91144748	      0.12062751	      9.15818774	     -0.17249094	     -7.49999987	     -7.96721483	      2.01271957	     -4.73674477	    -29.54655677	    -12.14739319	    -12.24954723	     45.07097156	     73.45581094	    -26.05466446	    -11.95325615	    -34.74068119	     14.53647817	     68.70541672
      1.51666670	    -12.80918619	      0.35627026	     -1.14393639	     -1.02499238	      1.39189671	     -0.04362956	     10.28014334	      1.30128347	     -2.49962799	      6.03948319	      0.10540887	     10.34841493	      0.99639373	     -7.49999987	     10.60015110	     -0.05503925	     -0.01846893	      7.02761130	      0.12265496	      9.22625389	      0.01115838	     -7.49999987	     -8.15206345	      2.10164602	     -5.13715998	    -29.55474522	    -12.25199705	    -11.96618484	     45.56147714	     72.94544306	    -26.54614038	    -11.92482112	    -34.43143930	     14.25474642	     68.22940855
      1.52083330	    -12.97634460	      0.36288914	     -1.08441086	     -1.02325851	      1.39451258	     -0.04384092	     10.43569306	      1.31388655	     -2.44918131	      6.07348352	      0.10600228	     10.17264451	      1.05124753	     -7.49999987	     10.82395279	     -0.05776097	      0.03380829	      7.16829947	      0.12511043	      9.18043783	      0.07827250	     -7.49999987	     -8.17238083	      2.16258973	     -5.34646309	    -29.63244358	    -12.47400550	    -11.50029503	     45.86449086	     71.87895284	    -26.80688959	    -12.10412430	    -33.88382106	     13.76741520	     67.39044295
      1.52500000	    -13.14281836	      0.38753899	     -1.10837041	     -1.02222014	      1.39525914	     -0.04309383	     10.60371985	      1.31458966	     -2.44696191	      6.12456090	      0.10689375	     10.13309615	      1.21509831	     -7.49999987	     11.01644862	     -0.06522031	     -0.15464928	      7.27001428	      0.12688569	      9.23943063	      0.40333642	     -7.49999987	     -8.21198748	      2.14216800	     -5.41500807	    -29.77431373	    -12.59065712	    -10.97770318	     46.01840550	     71.53084310	    -27.21281461	    -12.23372957	    -33.30369611	     13.42386449	     67.02449286
      1.52916670	    -13.29256273	      0.41897757	     -1.08034791	     -1.02349500	      1.39392679	     -0.04370641	     10.81506602	      1.27477699	     -2.52354503	      6.23931215	      0.10889654	     10.01720814	      1.04695112	     -7.49999987	     11.27546504	     -0.02500068	     -0.21221369	      7.49284239	      0.13077477	      9.26204037	      0.50948881	     -7.49999987	     -8.34439790	      2.07837979	     -5.49026478	    -29.88838433	    -12.65418530	    -10.59118522	     46.40095717	     70.47997150	    -27.74131781	    -12.14736552	    -32.76880765	     13.72849823	     66.23912803
      1.53333330	    -13.54625862	      0.45379149	     -1.08346319	     -1.02457408	      1.39436977	     -0.04495364	     11.17172612	      1.21598567	     -2.60796115	      6.37810141	      0.11131887	      9.92290349	      1.08447865	     -7.49999987	     11.66229928	      0.02592983	     -0.37916629	      7.71095738	      0.13458159	      9.29960149	      0.65927101	     -7.49999987	     -8.45606785	      2.15805122	     -5.56210770	    -29.87372320	    -12.92102602	    -10.07561231	     46.71476946	     70.46774377	    -28.02823489	    -12.14555471	    -31.95005337	     13.54846242	     66.15420230
      1.53750000	    -13.72382830	      0.46759637	     -1.05532904	     -1.02212876	      1.39497217	     -0.04486166	     11.42784986	      1.18337262	     -2.67713364	      6.52639447	      0.11390707	      9.76477275	      0.96642745	     -7.49999987	     11.89727849	      0.06360479	     -0.44895890	      7.86161807	      0.13721112	      9.29967507	      0.70220632	     -7.49999987	     -8.57738256	      2.16614120	     -5.60522434	    -29.90480295	    -12.99785115	     -9.77592416	     46.89032758	     69.97048808	    -28.37943866	    -12.08380217	    -31.24434863	     13.58278757	     65.78666443
      1.54166670	    -13.92314332	      0.47593883	     -1.06441682	     -1.02123541	      1.39441975	     -0.04491310	     11.68712959	      1.15928230	     -2.76876258	      6.67826941	      0.11655779	      9.68483782	      0.91566792	     -7.49999987	     12.15679148	      0.07301992	     -0.53647334	      8.00933196	      0.13978921	      9.33133296	      0.79916603	     -7.49999987	     -8.76809995	      2.26490164	     -5.77353751	    -29.88505162	    -13.19028706	     -9.44048548	     47.12089478	     69.41207783	    -28.80362962	    -12.01834630	    -30.62132250	     13.48000940	     65.32651457
